<?xml version="1.0" encoding="UTF-8"?>
<svg width="16px" height="16px" viewBox="0 0 16 16" xmlns="http://www.w3.org/2000/svg" xmlns:xlink="http://www.w3.org/1999/xlink" version="1.1">
 <!-- Generated by Pixelmator Pro 2.1.2 -->
 <g id="group">
  <path id="Trazado" d="M14.147 11.915 C15.14 10.747 15.734 9.273 15.734 7.672 15.738 3.866 12.378 0.781 8.236 0.781 4.094 0.781 0.734 3.866 0.734 7.675 0.734 11.485 4.091 14.566 8.236 14.566 9.149 14.566 10.055 14.415 10.915 14.113 11.015 14.08 11.126 14.113 11.19 14.2 11.817 15.046 12.794 15.64 13.882 15.882 13.962 15.899 14.039 15.848 14.056 15.768 14.066 15.724 14.056 15.681 14.026 15.647 13.167 14.533 13.22 12.969 14.15 11.915 Z M11.794 6.863 L9.861 8.33 10.562 10.653 C10.596 10.767 10.532 10.891 10.418 10.924 10.354 10.945 10.283 10.935 10.23 10.894 L8.236 9.511 6.246 10.898 C6.145 10.968 6.011 10.941 5.94 10.844 5.903 10.79 5.89 10.72 5.91 10.656 L6.612 8.333 4.678 6.863 C4.581 6.789 4.564 6.652 4.635 6.558 4.675 6.504 4.739 6.474 4.806 6.47 L7.229 6.42 8.028 4.131 C8.068 4.017 8.192 3.956 8.307 3.997 8.37 4.02 8.421 4.067 8.441 4.131 L9.24 6.42 11.663 6.47 C11.784 6.47 11.881 6.571 11.881 6.692 11.881 6.759 11.848 6.823 11.794 6.863 Z" fill="#000000" fill-opacity="1" stroke="none"/>
 </g>
</svg>
